{"glyphs":{":":{"x_min":0,"x_max":195,"ha":195,"o":"m 92 485 b 58 485 31 458 31 426 b 31 393 58 366 92 366 b 126 366 153 393 153 426 b 153 458 126 485 92 485 z m 92 105 b 58 105 31 78 31 46 b 31 13 58 -14 92 -14 b 126 -14 153 13 153 46 b 153 78 126 105 92 105 z"},"$":{"x_min":0,"x_max":537,"ha":537,"o":"m 309 750 l 216 750 l 216 664 b 170 657 132 640 101 613 b 66 583 49 546 49 503 b 49 451 65 409 96 377 b 123 349 163 327 216 311 l 216 79 b 170 88 117 109 59 144 l 7 72 b 71 24 141 -3 216 -9 l 216 -69 l 309 -69 l 309 -8 b 365 -2 393 1 446 45 b 486 77 506 121 506 176 b 506 233 486 278 446 311 b 418 334 372 356 309 375 l 309 575 b 352 567 402 545 458 511 l 510 584 b 448 627 381 654 309 664 z m 216 408 b 195 418 178 430 165 445 b 152 459 146 478 146 501 b 146 524 153 541 166 553 b 180 565 197 573 216 577 z m 309 281 b 322 276 334 271 346 266 b 388 246 409 216 409 176 b 409 118 376 85 309 77 z"},"?":{"x_min":0,"x_max":458,"ha":458,"o":"m 139 543 b 107 543 104 560 104 567 b 104 577 109 582 118 589 b 130 598 143 604 157 609 b 176 616 192 619 211 619 b 246 619 281 608 306 587 b 318 577 329 563 336 548 b 344 531 347 514 347 496 b 347 468 340 449 330 434 b 318 415 295 398 285 391 b 264 376 248 367 228 356 b 202 342 188 334 170 320 b 148 303 136 289 126 272 b 114 252 108 233 108 202 b 108 176 112 150 118 130 l 203 147 b 197 183 196 193 196 200 b 196 217 201 229 214 243 b 224 254 235 263 258 277 l 316 309 b 397 354 435 421 435 496 b 435 560 407 613 368 647 b 329 681 272 703 213 703 b 166 703 118 689 85 669 b 72 661 50 645 36 626 b 21 606 16 583 16 564 b 16 509 58 474 110 474 b 125 474 141 477 156 483 z m 184 93 b 150 93 122 65 122 31 b 122 -3 150 -31 184 -31 b 218 -31 246 -3 246 31 b 246 65 218 93 184 93 z"},"<":{"x_min":0,"x_max":384,"ha":384,"o":"m 339 399 l 288 475 l -13 265 l 287 56 l 341 133 l 150 267 z"},"'":{"x_min":0,"x_max":188,"ha":188,"o":"m 129 475 l 140 702 l 32 702 l 43 475 z"},"=":{"x_min":0,"x_max":454,"ha":454,"o":"m 429 330 l 429 417 l 42 417 l 42 330 z m 429 170 l 429 257 l 42 257 l 42 170 z"},"a":{"x_min":0,"x_max":644,"ha":644,"o":"m 540 96 b 537 93 534 88 530 83 b 526 77 522 74 517 74 b 512 74 507 76 504 79 b 501 82 499 86 499 91 l 499 500 l 463 500 l 451 499 b 424 499 401 501 380 505 b 351 507 319 508 303 508 b 231 508 162 487 113 434 b 73 391 45 324 45 245 b 45 178 65 114 104 67 b 143 20 201 -9 276 -9 b 335 -9 385 9 421 45 b 430 28 444 14 461 5 b 478 -4 497 -9 517 -9 b 555 -9 588 10 614 48 z m 409 192 b 409 156 396 126 369 104 b 346 85 314 72 276 72 b 232 72 196 89 170 128 b 150 158 137 201 137 250 b 137 302 151 343 178 375 b 190 389 206 403 227 413 b 246 422 265 427 288 427 b 302 427 337 425 409 420 z"},"L":{"x_min":0,"x_max":527,"ha":527,"o":"m 150 88 l 150 684 l 54 684 l 54 0 l 477 0 l 477 88 z"},"3":{"x_min":0,"x_max":583,"ha":583,"o":"m 145 529 b 196 561 234 583 296 583 b 325 583 347 578 367 567 b 397 550 405 527 405 504 b 405 438 337 406 296 406 l 170 406 l 170 319 l 297 319 b 337 319 371 308 398 286 b 426 263 442 229 442 191 b 442 150 424 116 386 98 b 373 92 352 85 329 82 b 308 79 280 78 269 78 b 204 78 137 113 86 141 l 45 65 b 122 22 193 -9 278 -9 b 304 -9 342 -6 375 0 b 407 6 441 20 461 32 b 513 64 541 123 541 191 b 541 291 481 342 427 373 b 480 407 504 449 504 508 b 504 624 411 670 289 670 b 209 670 181 650 99 604 z"},";":{"x_min":0,"x_max":179,"ha":179,"o":"m 92 485 b 58 485 31 458 31 426 b 31 393 58 366 92 366 b 126 366 153 393 153 426 b 153 458 126 485 92 485 z m 44 15 b 44 6 44 1 42 -10 b 38 -27 26 -45 5 -66 l 61 -122 b 91 -101 112 -79 125 -56 b 137 -33 143 -3 143 32 l 143 52 b 143 67 138 79 128 88 b 118 97 106 102 92 102 b 78 102 66 98 57 89 b 47 80 42 68 42 54 z"},"J":{"x_min":0,"x_max":471,"ha":471,"o":"m 58 588 b 92 606 121 615 145 615 b 155 615 170 611 190 603 b 227 589 258 582 283 582 b 298 582 312 584 323 587 l 323 196 b 323 161 315 133 298 111 b 281 88 255 77 218 77 b 181 77 153 86 136 103 b 113 125 101 156 100 197 l 38 197 b 29 197 23 197 20 198 b 21 133 38 83 70 48 b 101 12 148 -6 211 -6 b 274 -6 323 13 359 50 b 394 86 411 134 411 194 l 411 690 l 331 690 b 319 674 306 666 290 666 b 275 666 261 668 250 671 b 239 674 223 680 203 688 b 183 695 173 699 145 699 b 92 699 52 685 24 658 z"},"V":{"x_min":0,"x_max":706,"ha":706,"o":"m 104 574 b 105 579 107 585 110 592 b 113 598 118 601 125 601 b 132 601 137 598 138 592 l 348 0 l 432 0 l 666 685 l 569 685 l 390 152 l 226 618 b 224 623 221 629 218 634 b 196 671 163 690 123 690 b 95 690 74 681 55 664 b 36 647 23 625 15 598 z"},"\"":{"x_min":0,"x_max":345,"ha":345,"o":"m 135 475 l 146 702 l 38 702 l 49 475 z m 295 475 l 306 702 l 198 702 l 209 475 z"},"7":{"x_min":0,"x_max":492,"ha":492,"o":"m 482 626 l 482 653 l 30 648 l 30 562 b 258 562 299 563 359 565 l 120 0 l 222 0 z"},"S":{"x_min":0,"x_max":581,"ha":581,"o":"m 25 162 b 37 135 50 113 70 87 b 91 60 107 45 130 28 b 159 7 182 -3 205 -11 b 232 -20 261 -24 289 -24 b 320 -24 353 -19 380 -9 b 407 1 437 19 457 36 b 477 53 498 79 511 103 b 528 135 531 165 531 192 b 531 229 525 252 514 275 b 503 297 488 316 470 333 b 451 349 430 363 406 376 l 332 412 l 282 436 b 265 443 250 453 235 464 b 217 477 211 483 202 494 b 193 504 189 518 189 535 b 189 549 192 561 199 572 b 205 582 214 592 225 599 b 236 606 248 611 261 615 b 274 618 288 620 297 620 b 303 620 314 619 322 618 b 331 617 342 614 350 611 b 358 608 365 604 373 598 b 379 592 382 585 382 577 b 382 571 380 567 377 566 b 373 564 369 563 365 563 b 362 563 358 563 355 564 l 345 567 l 337 482 b 340 481 342 482 347 480 b 350 479 352 478 359 478 b 370 478 386 480 400 484 b 414 488 426 494 437 503 b 448 511 456 521 463 534 b 469 546 472 560 472 577 b 472 599 467 618 456 635 b 446 650 431 664 414 675 b 397 686 378 694 357 699 b 336 704 317 706 298 706 b 273 706 249 702 226 694 b 196 684 177 672 162 660 b 143 645 128 628 117 607 b 105 586 99 562 99 535 b 99 505 106 480 119 459 b 130 441 150 418 171 400 b 179 393 200 378 215 370 b 222 366 237 358 259 348 b 299 329 294 333 304 328 l 351 306 b 362 301 375 295 387 287 b 399 279 409 270 415 263 b 421 256 429 245 434 233 b 439 221 441 207 441 192 b 441 172 437 154 428 138 b 420 123 408 108 394 97 b 380 85 364 76 346 70 b 328 64 311 61 291 61 b 271 61 250 64 231 71 b 214 77 195 87 180 99 b 167 109 151 125 139 142 b 127 158 117 175 109 194 z"},"}":{"x_min":0,"x_max":317,"ha":317,"o":"m 6 677 l 39 668 b 50 665 62 662 76 657 b 90 652 104 646 117 638 b 130 630 136 617 136 599 b 136 582 132 542 124 480 b 119 439 116 404 116 374 b 116 337 131 308 160 288 b 131 268 116 240 116 203 b 116 166 119 129 126 92 b 133 54 136 18 136 -17 b 136 -38 129 -52 116 -60 b 103 -68 90 -74 76 -79 b 62 -84 50 -87 39 -90 l 6 -99 l 30 -176 b 53 -169 77 -163 101 -157 b 125 -151 147 -143 166 -132 b 185 -121 201 -107 213 -89 b 226 -71 232 -47 232 -16 b 232 14 228 59 220 118 l 214 164 b 213 177 212 190 212 203 b 212 227 240 241 295 247 l 295 331 b 269 334 252 336 243 339 b 234 342 227 346 221 352 b 215 357 212 366 212 378 b 212 389 216 426 224 488 b 229 525 232 560 232 593 b 232 647 210 686 166 710 b 147 721 125 729 101 735 b 77 741 53 747 30 754 z"},"Z":{"x_min":0,"x_max":624,"ha":624,"o":"m 546 681 l 92 681 l 92 597 l 391 597 l 30 22 l 105 -20 l 144 41 b 159 38 194 29 227 19 b 250 12 271 5 304 -2 b 337 -9 365 -13 393 -13 b 455 -13 509 7 574 68 l 511 126 b 492 108 471 93 460 86 b 442 75 421 70 394 70 b 360 70 329 78 272 94 b 240 103 224 107 190 114 z"},"x":{"x_min":0,"x_max":591,"ha":591,"o":"m 327 251 l 490 500 l 383 500 l 268 322 l 149 500 l 40 500 l 211 249 l 42 0 l 149 0 l 268 177 l 365 29 b 375 14 389 2 406 -6 b 423 -14 440 -18 460 -18 b 494 -18 517 -6 535 16 b 554 39 562 50 566 94 l 473 99 b 473 77 468 67 457 67 b 452 67 446 69 443 74 z"},")":{"x_min":0,"x_max":365,"ha":365,"o":"m 13 686 b 80 648 114 629 178 519 b 221 448 242 373 242 294 b 242 218 221 143 178 69 b 135 -4 80 -59 13 -96 l 56 -166 b 142 -120 210 -57 260 25 b 310 107 335 197 335 294 b 335 392 310 482 260 564 b 211 644 143 708 56 756 z"},"&":{"x_min":0,"x_max":631,"ha":631,"o":"m 546 -10 l 605 53 l 512 136 b 545 190 561 249 561 315 l 561 371 l 473 371 l 473 324 b 473 276 464 233 445 194 l 311 314 b 303 321 288 334 273 346 b 213 395 188 432 188 478 b 188 505 197 522 211 533 b 224 543 241 549 271 549 b 302 549 317 542 332 528 b 344 517 356 501 368 477 l 434 531 b 422 560 399 586 373 604 b 346 623 316 634 274 634 b 230 634 184 622 147 594 b 110 566 88 528 88 472 b 88 424 104 387 129 355 b 98 336 74 313 55 278 b 38 247 28 214 28 176 b 28 115 53 68 92 37 b 132 5 186 -9 245 -9 b 323 -9 401 15 457 68 z m 392 124 b 352 88 292 73 241 73 b 201 73 177 82 156 99 b 145 108 137 117 130 132 b 122 149 120 162 120 177 b 120 202 126 226 139 246 b 150 263 171 284 192 294 b 226 269 260 241 294 211 z"},"_":{"x_min":0,"x_max":574,"ha":574,"o":"m 517 -150 l 517 -60 l 42 -60 l 42 -150 z"},"v":{"x_min":0,"x_max":524,"ha":524,"o":"m 30 452 b 61 436 80 419 87 400 l 228 0 l 310 0 l 484 500 l 392 500 l 269 148 l 180 404 b 170 432 157 455 141 473 b 124 490 104 507 79 522 z"},"O":{"x_min":0,"x_max":824,"ha":824,"o":"m 40 330 b 40 281 50 234 70 191 b 92 143 120 108 151 78 b 188 43 228 19 268 2 b 309 -15 352 -26 407 -26 b 456 -26 504 -17 550 2 b 594 20 630 44 664 77 b 696 108 726 147 746 190 b 772 247 774 290 774 330 l 774 349 b 774 399 764 446 745 489 b 726 532 698 570 664 602 b 628 636 589 661 548 678 b 503 697 456 706 407 706 b 358 706 311 697 266 679 b 221 661 185 637 149 602 b 116 570 90 535 70 490 b 49 443 40 396 40 349 z m 683 330 b 683 261 656 190 602 137 b 555 91 484 59 406 59 b 369 59 335 66 301 80 b 267 94 238 113 213 138 b 158 192 131 256 131 330 l 131 349 b 131 423 158 487 213 541 b 242 569 272 587 301 599 b 335 613 369 620 406 620 b 484 620 552 590 601 541 b 628 514 649 482 661 455 b 676 422 683 386 683 349 z"},"(":{"x_min":0,"x_max":365,"ha":365,"o":"m 295 756 b 208 709 139 645 90 564 b 40 482 15 392 15 294 b 15 197 40 107 90 25 b 140 -57 208 -121 295 -166 l 337 -96 b 270 -59 215 -4 172 70 b 130 142 109 216 109 294 b 109 372 130 447 172 520 b 214 592 269 647 337 686 z"},"C":{"x_min":0,"x_max":761,"ha":761,"o":"m 637 187 b 578 102 485 64 421 64 b 387 64 291 53 209 142 b 185 168 163 202 151 229 b 138 258 129 295 129 336 b 129 373 136 411 152 448 b 166 480 188 513 214 539 b 239 564 269 585 305 601 b 339 616 373 624 412 624 b 446 624 483 618 510 609 b 552 595 571 575 571 553 b 571 548 570 540 567 536 b 565 533 560 530 554 530 b 547 530 547 534 541 537 b 537 539 532 543 530 543 l 474 477 b 505 453 531 445 555 445 b 587 445 614 459 630 475 b 649 494 660 520 660 550 b 660 604 626 646 573 674 b 529 697 473 710 416 710 b 369 710 318 701 271 681 b 227 662 185 634 151 600 b 115 564 87 520 70 481 b 50 435 40 386 40 335 b 40 281 51 235 69 194 b 89 149 116 112 148 81 b 178 52 217 25 265 6 b 308 -11 356 -21 409 -21 b 467 -21 524 -9 579 21 b 630 49 675 88 711 138 z"},"W":{"x_min":0,"x_max":1146,"ha":1146,"o":"m 103 579 l 109 596 b 111 601 115 606 124 606 b 132 606 136 602 138 595 l 343 0 l 428 0 l 607 526 l 787 0 l 872 0 l 1106 685 l 1009 685 l 830 153 l 650 685 l 565 685 l 386 153 l 227 623 b 220 644 207 662 187 675 b 170 686 148 694 121 694 b 93 694 73 686 54 668 b 32 648 23 629 15 603 z"},"A":{"x_min":0,"x_max":801,"ha":801,"o":"m 761 0 l 449 686 l 407 686 l 138 94 b 135 89 131 86 124 86 b 117 86 113 89 110 96 b 107 103 105 109 104 114 l 15 97 b 20 69 32 45 51 26 b 70 7 91 -3 121 -3 b 142 -3 165 2 183 13 b 201 23 214 38 223 58 l 292 216 l 563 216 l 658 0 z m 330 303 l 428 523 l 525 303 z"},"f":{"x_min":0,"x_max":418,"ha":418,"o":"m 55 -259 l 145 -259 l 145 185 l 293 185 l 293 269 l 145 269 l 145 392 l 175 392 b 241 392 294 409 331 440 b 372 474 393 526 393 585 b 393 635 378 674 346 702 b 331 715 314 725 294 732 b 274 739 246 742 224 742 b 191 742 163 735 140 720 b 89 687 55 611 55 493 z m 145 476 l 145 496 b 145 542 149 576 157 599 b 162 616 172 631 182 641 b 193 652 210 658 231 658 b 252 658 269 652 282 640 b 295 627 301 611 301 584 b 301 513 258 476 175 476 z"},"Q":{"x_min":0,"x_max":801,"ha":801,"o":"m 169 -153 l 240 -205 l 285 -142 b 341 -161 353 -165 394 -176 b 435 -187 456 -192 493 -192 b 558 -192 588 -177 645 -139 l 603 -67 b 558 -98 529 -109 497 -109 b 477 -109 445 -105 421 -98 l 337 -71 l 377 -15 b 386 -16 395 -16 404 -16 b 448 -16 490 -8 525 4 b 612 34 686 102 723 191 b 742 237 751 289 751 339 b 751 436 717 528 652 594 b 592 655 502 694 396 694 b 296 694 205 660 140 594 b 74 527 40 435 40 340 b 40 261 64 185 103 127 b 145 65 206 21 282 0 z m 406 608 b 460 608 533 596 588 532 b 627 487 656 417 656 335 b 656 255 628 189 587 145 b 540 94 473 69 399 69 b 317 69 250 99 207 144 b 159 194 136 263 136 338 b 136 420 164 487 206 531 b 226 552 254 573 289 587 b 314 597 354 608 406 608 z"},"w":{"x_min":0,"x_max":849,"ha":849,"o":"m 30 453 b 61 435 80 418 88 400 l 226 1 l 309 1 l 431 351 l 553 1 l 635 1 l 809 501 l 716 501 l 594 151 l 472 501 l 390 501 l 268 150 l 179 404 b 161 453 128 493 79 524 z"},"-":{"x_min":0,"x_max":431,"ha":431,"o":"m 374 260 l 374 352 l 42 352 l 42 260 z"},"E":{"x_min":0,"x_max":663,"ha":663,"o":"m 613 597 l 613 684 l 134 684 b 98 684 69 671 47 644 b 25 618 14 587 14 551 l 105 551 b 104 558 106 570 109 579 b 113 591 120 595 130 597 l 130 0 l 613 0 l 613 88 l 226 88 l 226 317 l 493 317 l 493 404 l 226 404 l 226 597 z"},"s":{"x_min":0,"x_max":469,"ha":469,"o":"m 35 57 b 96 13 159 -9 231 -9 b 282 -9 328 2 365 25 b 407 51 429 89 429 140 b 429 191 407 231 360 260 b 347 268 322 281 296 291 b 273 299 252 307 232 315 b 212 322 196 331 183 341 b 170 350 163 363 163 380 b 163 396 170 408 184 416 b 194 422 210 427 228 427 b 257 427 304 415 364 392 l 382 471 b 337 496 285 508 238 508 b 190 508 150 496 122 476 b 87 451 70 415 70 376 b 70 330 93 291 139 265 b 155 256 180 244 203 237 b 226 229 247 221 267 213 b 287 205 306 195 317 185 b 330 174 336 160 336 141 b 336 95 302 72 237 72 b 207 72 180 77 156 86 b 131 95 107 108 82 123 z"},">":{"x_min":0,"x_max":384,"ha":384,"o":"m 383 265 l 82 474 l 28 397 l 219 263 l 30 132 l 82 56 z"},"l":{"x_min":0,"x_max":275,"ha":275,"o":"m 134 726 l 44 726 l 44 94 b 44 64 54 40 75 21 b 96 2 121 -8 149 -8 b 188 -8 221 12 250 51 l 174 97 l 164 85 b 160 80 156 77 151 77 b 146 77 142 79 139 82 b 136 85 134 89 134 94 z"},"8":{"x_min":0,"x_max":564,"ha":564,"o":"m 278 666 b 225 666 177 651 139 622 b 97 590 76 546 76 494 b 76 440 99 400 144 369 b 114 346 89 320 70 291 b 49 259 40 229 40 189 b 40 123 64 72 113 35 b 157 2 213 -15 281 -15 b 349 -15 405 2 449 35 b 498 72 522 124 522 186 b 522 265 484 321 409 362 b 463 399 485 452 485 486 b 485 508 480 581 422 622 b 381 651 330 666 278 666 z m 292 580 b 307 580 328 579 355 559 b 367 550 373 542 379 531 b 385 520 388 508 388 494 b 388 482 386 471 382 462 b 373 442 350 420 317 398 b 294 404 271 411 247 419 b 192 435 173 460 173 494 b 173 520 184 543 206 559 b 225 573 251 580 292 580 z m 234 329 b 252 324 318 309 357 288 b 372 280 394 265 406 250 b 419 234 425 216 425 191 b 425 170 421 150 414 135 b 393 90 343 69 281 69 b 239 69 205 79 180 98 b 167 107 156 120 149 135 b 141 150 137 172 137 190 b 137 223 150 248 171 272 b 184 287 203 304 234 329 z"},"\\":{"x_min":0,"x_max":337,"ha":337,"o":"m 325 -69 l 96 750 l -2 750 l 225 -69 z"},"e":{"x_min":0,"x_max":546,"ha":546,"o":"m 452 122 b 433 112 399 96 374 87 b 346 77 316 72 287 72 b 247 72 214 81 191 98 b 169 114 150 143 142 187 l 240 187 b 310 187 362 200 398 219 b 453 248 478 294 478 349 b 478 398 458 439 414 469 b 376 495 328 508 281 508 b 212 508 152 480 108 429 b 66 380 45 315 45 237 b 45 169 61 108 106 59 b 146 16 202 -10 280 -10 b 354 -10 428 13 496 56 z m 137 268 b 140 312 158 351 179 377 b 192 393 207 406 222 415 b 241 426 261 429 277 429 b 286 429 302 428 317 425 b 331 422 343 417 352 411 b 357 408 369 400 376 387 b 383 375 386 364 386 349 b 386 331 382 316 371 305 b 367 301 350 286 329 278 b 305 269 281 268 240 268 z"},"b":{"x_min":0,"x_max":558,"ha":558,"o":"m 145 726 l 55 726 l 55 14 b 106 -1 186 -9 237 -9 b 325 -9 394 15 441 67 b 480 110 508 178 508 258 b 508 328 486 394 449 440 b 407 492 347 518 277 518 b 225 518 181 503 145 474 z m 145 329 b 145 350 154 370 172 390 b 199 420 235 435 276 435 b 323 435 357 415 383 376 b 405 342 416 301 416 253 b 416 200 403 158 376 126 b 362 109 345 96 325 87 b 305 78 283 73 248 73 b 226 73 189 75 145 80 z"},"%":{"x_min":0,"x_max":732,"ha":732,"o":"m 173 711 b 130 711 93 696 63 665 b 34 634 20 597 20 553 b 20 508 34 469 62 438 b 75 423 91 411 110 402 b 129 393 149 389 171 389 b 216 389 238 389 283 436 b 313 466 328 503 328 547 b 328 591 314 629 285 662 b 256 695 218 711 173 711 z m 286 0 l 515 656 l 420 656 l 190 0 z m 173 630 b 193 630 211 620 228 600 b 238 589 243 573 243 553 b 243 531 243 520 225 496 b 212 479 195 470 173 470 b 153 470 134 480 118 500 b 109 512 104 527 104 547 b 104 557 105 567 108 577 b 119 612 141 630 173 630 z m 548 312 b 505 312 468 296 438 265 b 409 235 395 198 395 155 b 395 109 409 71 437 39 b 450 24 466 13 485 4 b 504 -5 524 -9 546 -9 b 591 -9 613 -9 658 37 b 688 68 703 105 703 148 b 703 193 689 231 660 264 b 631 296 594 312 548 312 z m 555 231 b 571 231 586 223 599 207 b 612 192 618 176 618 161 b 618 134 618 121 600 97 b 587 80 570 71 548 71 b 528 71 509 81 493 101 b 484 113 479 128 479 148 b 479 170 485 189 497 205 b 502 213 509 219 518 224 b 527 229 539 231 555 231 z"},"m":{"x_min":0,"x_max":929,"ha":929,"o":"m 45 458 b 62 442 75 425 82 408 b 89 391 93 370 93 346 l 93 0 l 183 0 l 183 348 b 188 359 197 370 205 379 b 236 413 272 427 310 427 b 339 427 362 419 375 402 b 387 385 393 361 393 331 l 393 0 l 483 0 l 483 346 b 514 400 556 427 610 427 b 666 427 694 399 694 344 l 694 90 b 694 77 697 61 703 48 b 717 16 751 -10 800 -10 b 841 -10 873 9 899 47 l 826 93 b 818 80 812 73 803 73 b 798 73 792 75 789 78 b 786 81 784 85 784 90 l 784 345 b 784 397 768 438 735 467 b 703 494 660 508 612 508 b 548 508 499 484 457 437 b 428 484 382 508 317 508 b 255 508 203 486 164 443 b 152 468 132 490 103 510 z"},"#":{"x_min":0,"x_max":591,"ha":591,"o":"m 445 492 l 445 637 l 354 637 l 354 492 l 222 492 l 222 637 l 131 637 l 131 492 l 17 492 l 17 410 l 131 410 l 131 258 l 17 258 l 17 176 l 133 176 l 133 30 l 222 30 l 222 176 l 356 176 l 356 30 l 445 30 l 445 176 l 559 176 l 559 258 l 445 258 l 445 410 l 559 410 l 559 492 z m 222 410 l 354 410 l 354 258 l 222 258 z"},",":{"x_min":0,"x_max":187,"ha":187,"o":"m 44 15 b 44 6 44 1 42 -10 b 38 -27 26 -45 5 -66 l 61 -122 b 91 -101 112 -79 125 -56 b 137 -33 143 -3 143 32 l 143 52 b 143 67 138 79 128 88 b 118 97 106 102 92 102 b 78 102 66 98 57 89 b 47 80 42 68 42 54 z"},"n":{"x_min":0,"x_max":659,"ha":659,"o":"m 45 458 b 62 442 75 425 82 408 b 89 391 93 370 93 346 l 93 0 l 183 0 l 183 343 b 197 361 218 386 245 403 b 267 417 293 428 328 428 b 361 428 386 418 401 404 b 417 389 424 367 424 330 l 424 88 b 424 75 427 59 433 46 b 447 14 481 -12 530 -12 b 571 -12 603 7 629 45 l 556 91 b 548 78 542 71 533 71 b 528 71 522 73 519 76 b 516 79 514 83 514 88 l 514 355 b 514 383 509 407 500 427 b 472 484 408 508 333 508 b 258 508 209 484 166 438 b 155 464 133 488 102 510 z"},"h":{"x_min":0,"x_max":611,"ha":611,"o":"m 134 729 l 44 729 l 44 3 l 134 3 l 134 353 b 151 376 176 400 196 414 b 216 428 240 438 278 438 b 311 438 335 431 351 417 b 367 403 375 380 375 348 l 375 95 b 375 66 386 42 407 23 b 416 14 428 7 441 2 b 454 -4 470 -6 484 -6 b 507 -6 523 -1 538 10 b 553 20 568 34 581 51 l 505 100 b 496 86 488 79 481 79 b 470 79 465 79 465 95 l 465 351 b 465 381 461 407 452 428 b 426 491 366 521 284 521 b 219 521 176 502 134 465 z"},"z":{"x_min":0,"x_max":561,"ha":561,"o":"m 466 464 l 466 498 l 80 498 l 80 417 l 321 417 l 35 24 l 106 -26 l 151 34 b 190 23 226 12 261 3 b 295 -7 333 -12 374 -12 b 416 -12 462 5 511 39 l 469 108 b 428 81 394 68 368 68 b 342 68 315 72 287 79 b 274 82 260 86 247 91 l 202 105 z"},"B":{"x_min":0,"x_max":650,"ha":650,"o":"m 135 695 b 99 695 70 682 48 655 b 26 629 15 598 15 562 l 106 562 b 106 593 117 608 139 608 l 139 2 l 207 -4 b 236 -6 283 -9 329 -9 b 416 -9 485 2 532 39 b 552 55 573 77 587 102 b 601 127 608 159 608 192 b 608 232 598 266 579 296 b 562 323 535 350 501 368 b 554 399 577 452 577 496 b 577 524 586 593 511 648 b 470 678 415 695 357 695 z m 235 608 l 371 608 b 406 608 430 600 450 583 b 471 565 483 540 483 509 b 483 491 479 476 471 461 b 451 423 415 404 356 404 l 301 404 l 301 319 l 363 319 b 403 319 437 309 466 289 b 498 266 514 237 514 197 b 514 156 498 123 465 102 b 453 94 432 86 414 82 b 395 78 372 76 336 76 b 310 76 274 77 235 79 z"},"K":{"x_min":0,"x_max":658,"ha":658,"o":"m 420 684 b 394 630 377 595 354 553 b 326 502 297 456 272 429 b 259 415 239 398 213 392 b 201 389 180 387 150 387 l 150 684 l 54 684 l 54 1 l 152 1 l 152 297 l 166 297 b 189 297 213 299 236 305 l 436 36 b 457 7 487 -7 524 -7 b 558 -7 585 5 605 29 b 624 51 634 79 634 113 l 542 113 b 542 91 536 80 525 80 b 520 80 517 80 511 87 l 320 344 b 339 361 357 382 374 407 b 382 419 407 457 424 486 b 445 521 458 546 477 581 b 497 618 515 650 536 684 z"},"R":{"x_min":0,"x_max":735,"ha":735,"o":"m 134 684 b 98 684 69 671 47 644 b 25 618 14 587 14 551 l 105 551 b 105 582 116 597 138 597 l 138 0 l 234 0 l 234 597 l 366 597 b 384 597 400 594 415 587 b 460 566 481 522 481 470 b 481 431 469 402 446 381 b 423 360 392 349 355 349 l 301 349 l 301 263 b 327 261 373 209 388 190 l 514 34 b 537 5 566 -9 604 -9 b 639 -9 664 3 683 25 b 702 47 711 75 711 108 l 619 111 b 619 104 619 96 618 89 b 617 82 612 78 603 78 b 597 78 592 80 589 84 l 459 246 l 444 264 l 429 280 b 474 289 510 312 537 348 b 563 382 576 423 576 470 b 576 529 556 582 519 622 b 481 663 431 684 370 684 z"},"T":{"x_min":0,"x_max":642,"ha":642,"o":"m 612 597 l 612 684 l 130 684 b 100 684 74 674 53 648 b 34 625 25 598 25 565 l 117 565 b 115 586 120 597 133 597 l 277 597 l 277 0 l 373 0 l 373 597 z"},"P":{"x_min":0,"x_max":624,"ha":624,"o":"m 134 684 b 98 684 69 671 47 644 b 25 618 14 587 14 551 l 105 551 b 104 561 106 571 111 582 b 115 592 123 597 136 597 l 140 597 l 140 0 l 236 0 l 236 597 l 350 597 b 390 597 422 586 445 564 b 470 540 480 506 480 469 b 480 432 470 399 449 373 b 426 345 395 331 357 331 b 339 331 318 334 296 339 b 296 304 293 274 293 252 b 310 247 328 245 348 245 b 414 245 468 266 510 308 b 553 351 574 405 574 470 b 574 533 555 584 517 624 b 478 664 427 684 364 684 z"},"|":{"x_min":0,"x_max":184,"ha":184,"o":"m 138 -87 l 138 768 l 42 768 l 42 -87 z"},"t":{"x_min":0,"x_max":396,"ha":396,"o":"m 145 505 l 145 624 l 55 624 l 55 152 b 55 45 103 -9 197 -9 b 231 -9 263 -2 291 16 b 325 38 346 71 356 88 l 287 136 b 278 120 266 106 251 94 b 244 87 236 82 228 78 b 219 74 210 72 200 72 b 189 72 180 74 173 79 b 154 90 145 114 145 152 l 145 419 l 303 419 l 303 505 z"},"M":{"x_min":0,"x_max":1034,"ha":1034,"o":"m 994 0 l 847 684 l 764 684 l 554 144 l 346 684 l 261 684 l 132 88 b 131 82 124 80 119 80 b 113 80 106 83 98 103 l 15 71 b 25 46 42 26 56 15 b 75 0 98 -6 120 -6 b 136 -6 147 -3 156 0 b 191 12 215 41 222 74 l 316 517 l 512 0 l 595 0 l 792 519 l 902 0 z"},"g":{"x_min":0,"x_max":548,"ha":548,"o":"m 498 499 l 428 499 l 383 505 b 357 508 320 509 305 509 b 227 509 161 480 117 435 b 69 386 45 320 45 250 b 45 198 58 142 82 97 b 106 52 145 12 199 -8 b 177 -38 166 -74 166 -117 b 166 -140 169 -191 209 -231 b 238 -261 282 -280 331 -280 b 378 -280 422 -263 452 -231 b 484 -197 498 -152 498 -101 z m 410 176 b 410 169 406 158 400 147 b 394 136 387 125 373 111 b 338 76 305 62 269 62 b 222 62 190 87 166 127 b 144 164 133 208 133 251 b 133 302 149 342 180 374 b 195 390 215 404 234 412 b 257 422 279 425 307 425 b 329 425 367 423 410 420 z m 410 -104 b 410 -112 408 -125 405 -136 b 394 -176 368 -196 331 -196 b 308 -196 287 -188 273 -169 b 268 -162 260 -147 259 -143 b 256 -135 254 -120 254 -104 b 254 -85 257 -77 269 -62 b 278 -51 287 -43 300 -35 l 325 -18 b 331 -13 339 -10 347 -7 b 366 -1 387 12 410 31 z"},"j":{"x_min":0,"x_max":256,"ha":256,"o":"m 157 733 b 126 733 100 707 100 676 b 100 644 126 619 157 619 b 189 619 214 644 214 676 b 214 707 189 733 157 733 z m 206 502 l 116 502 l 116 -161 b 116 -166 114 -170 111 -173 b 108 -176 104 -178 99 -178 b 94 -178 89 -176 85 -171 l 75 -158 l 0 -205 b 28 -245 59 -265 92 -265 b 126 -265 143 -265 175 -235 b 196 -215 206 -190 206 -161 z"},"i":{"x_min":0,"x_max":261,"ha":261,"o":"m 90 733 b 59 733 33 707 33 676 b 33 644 59 619 90 619 b 122 619 147 644 147 676 b 147 707 122 733 90 733 z m 135 500 l 45 500 l 45 83 b 45 53 55 29 76 10 b 97 -10 122 -19 151 -19 b 189 -19 222 1 251 40 l 175 86 l 165 74 b 161 69 157 66 152 66 b 147 66 143 68 140 71 b 137 74 135 78 135 83 z"},"y":{"x_min":0,"x_max":570,"ha":570,"o":"m 45 443 l 62 431 b 92 409 107 391 107 377 l 107 137 b 107 97 117 64 138 39 b 157 16 187 -3 227 -12 b 207 -38 196 -77 196 -116 b 196 -159 210 -201 240 -234 b 270 -267 310 -284 359 -284 b 407 -284 451 -268 482 -236 b 510 -207 527 -161 527 -106 l 527 500 l 438 500 l 438 169 b 435 155 432 144 426 136 b 423 131 419 126 414 122 b 409 117 402 110 392 101 b 382 91 367 81 352 75 b 335 68 310 64 286 64 b 252 64 233 72 219 87 b 203 104 197 128 197 162 l 197 377 b 197 401 184 434 158 462 b 145 476 124 494 94 515 z m 439 -110 b 439 -137 432 -159 418 -176 b 403 -192 383 -200 358 -200 b 335 -200 316 -193 302 -174 b 290 -158 284 -137 284 -116 b 284 -85 297 -59 322 -41 b 333 -32 349 -23 372 -13 b 392 -4 408 4 439 25 z"},"@":{"x_min":0,"x_max":698,"ha":698,"o":"m 550 60 b 486 31 421 19 350 19 b 283 19 223 30 179 75 b 141 114 118 174 118 240 b 118 305 141 365 178 405 b 217 447 275 471 347 471 b 413 471 464 451 506 413 b 528 393 541 374 553 346 b 565 318 570 290 570 264 b 570 237 565 210 555 191 b 542 166 523 155 503 155 b 491 155 480 159 471 166 b 461 174 456 184 456 198 l 456 409 l 394 409 l 328 414 b 285 414 245 395 219 369 b 192 343 173 303 173 256 b 173 218 185 175 209 144 b 220 130 236 116 253 107 b 272 97 293 92 319 92 b 348 92 372 98 402 124 b 423 91 462 79 500 79 b 551 79 591 100 617 131 b 644 163 658 209 658 262 b 658 343 625 419 567 471 b 512 520 435 548 345 548 b 251 548 171 518 115 462 b 62 409 29 330 29 234 b 29 129 69 63 121 17 b 154 -12 184 -27 221 -40 b 256 -52 293 -59 343 -59 b 380 -59 422 -55 461 -46 b 482 -41 538 -26 575 -15 z m 371 219 l 367 209 b 355 186 347 173 316 173 b 307 173 296 174 287 181 b 268 195 258 226 258 254 b 258 279 266 301 278 313 b 289 325 310 333 334 333 b 343 333 359 332 371 331 z"},".":{"x_min":0,"x_max":201,"ha":201,"o":"m 92 95 b 58 95 31 68 31 36 b 31 3 58 -24 92 -24 b 126 -24 153 3 153 36 b 153 68 126 95 92 95 z"},"p":{"x_min":0,"x_max":596,"ha":596,"o":"m 45 457 b 62 440 75 423 82 406 b 89 388 93 367 93 343 l 93 -260 l 183 -260 l 183 -14 b 218 -17 248 -20 279 -20 b 371 -20 435 7 479 56 b 517 98 546 165 546 247 b 546 320 523 385 487 430 b 445 482 385 508 314 508 b 250 508 198 487 162 445 b 150 466 144 477 103 511 z m 183 318 b 183 321 184 326 185 332 b 192 364 210 388 240 405 b 263 418 290 425 316 425 b 359 425 395 406 421 366 b 443 332 454 289 454 242 b 454 191 441 148 414 116 b 400 99 383 86 363 77 b 343 67 321 62 286 62 b 264 62 227 64 183 69 z"},"X":{"x_min":0,"x_max":702,"ha":702,"o":"m 391 350 l 612 684 l 499 684 l 328 424 l 156 684 l 45 684 l 268 350 l 48 0 l 160 0 l 331 275 l 456 70 b 470 47 485 27 500 15 b 517 1 536 -7 561 -7 b 580 -7 597 -2 611 4 b 648 20 671 48 677 108 l 585 113 b 582 92 576 82 564 82 b 560 82 558 83 555 87 z"},"*":{"x_min":0,"x_max":373,"ha":373,"o":"m 222 603 l 229 712 l 132 712 l 137 604 l 40 642 l 10 550 l 107 524 l 45 449 l 123 391 l 180 480 l 236 393 l 316 449 l 254 523 l 349 550 l 321 642 z"},"Y":{"x_min":0,"x_max":662,"ha":662,"o":"m 108 574 b 109 579 110 586 112 594 b 113 601 117 605 124 605 b 131 605 136 602 139 597 l 313 295 l 309 0 l 411 0 l 411 297 l 637 685 l 527 685 l 360 400 l 221 640 b 200 676 168 694 126 694 b 93 694 67 683 48 662 b 30 642 18 614 15 583 z"},"c":{"x_min":0,"x_max":546,"ha":546,"o":"m 452 126 b 427 113 401 101 374 91 b 347 81 319 76 289 76 b 239 76 201 90 175 119 b 149 148 136 186 136 239 b 136 290 148 332 170 368 b 181 386 191 398 214 415 b 232 427 256 433 282 433 b 313 433 340 425 357 411 b 376 396 386 371 386 337 l 478 337 b 478 389 460 435 419 468 b 384 496 334 512 282 512 b 214 512 152 484 108 433 b 65 383 45 316 45 242 b 45 174 62 111 106 63 b 149 16 209 -6 281 -6 b 357 -6 431 19 496 60 z"},"!":{"x_min":0,"x_max":184,"ha":184,"o":"m 129 152 l 140 704 l 28 704 l 39 152 z m 84 93 b 50 93 22 65 22 31 b 22 -3 50 -31 84 -31 b 118 -31 146 -3 146 31 b 146 65 118 93 84 93 z"},"/":{"x_min":0,"x_max":337,"ha":337,"o":"m 98 -87 l 325 768 l 226 768 l -2 -87 z"},"[":{"x_min":0,"x_max":330,"ha":330,"o":"m 315 661 l 315 750 l 42 750 l 42 -173 l 315 -173 l 315 -84 l 138 -84 l 138 661 z"},"6":{"x_min":0,"x_max":551,"ha":551,"o":"m 453 670 b 397 670 342 661 287 640 b 230 618 186 588 150 554 b 114 520 82 479 58 424 b 34 369 24 314 24 262 b 24 181 49 114 94 65 b 142 13 210 -15 281 -15 b 344 -15 408 7 456 50 b 501 91 530 150 530 217 b 530 281 504 340 455 385 b 432 406 407 421 376 433 b 342 446 312 451 279 451 b 227 451 193 438 150 413 b 185 478 228 520 274 545 b 322 571 346 586 451 586 z m 287 367 b 311 367 359 364 396 326 b 421 301 442 261 442 215 b 442 177 427 140 394 110 b 361 80 322 68 285 68 b 243 68 202 84 173 108 b 140 135 122 172 122 216 b 122 253 135 289 171 323 b 185 336 199 346 221 355 b 243 364 262 367 287 367 z"},"r":{"x_min":0,"x_max":422,"ha":422,"o":"m 45 458 b 77 428 93 391 93 347 l 93 0 l 183 0 l 183 346 b 219 403 255 426 300 426 b 319 426 350 422 382 415 l 382 498 b 369 500 356 502 344 505 b 331 507 318 508 305 508 b 246 508 199 487 164 444 b 150 470 129 492 103 510 z"},"2":{"x_min":0,"x_max":556,"ha":556,"o":"m 30 501 l 108 463 b 113 471 117 479 121 488 l 134 513 b 149 540 169 559 187 569 b 208 580 235 586 268 586 b 301 586 328 577 349 560 b 370 543 381 515 381 477 b 381 452 373 428 356 407 b 339 386 317 365 292 345 b 266 325 238 305 208 284 b 178 263 150 240 125 215 b 65 158 35 96 35 29 l 35 0 l 506 0 l 506 87 l 140 87 b 150 110 165 132 186 151 b 206 170 228 188 253 206 l 329 261 b 355 279 379 299 400 320 b 449 367 473 419 473 475 b 473 538 454 586 415 619 b 395 635 369 648 348 654 b 324 661 288 665 255 665 b 219 665 183 657 146 641 b 109 624 81 598 61 561 z"},"{":{"x_min":0,"x_max":318,"ha":318,"o":"m 297 677 l 273 754 b 250 747 226 741 203 735 b 179 729 157 721 138 710 b 119 699 103 685 91 667 b 78 648 72 623 72 591 b 72 558 76 515 83 460 l 89 413 b 91 400 92 388 92 377 b 92 366 89 357 82 352 b 69 341 45 334 9 330 l 9 247 b 31 245 48 242 60 237 b 69 234 76 230 82 225 b 89 220 92 211 92 200 b 92 189 89 162 82 120 b 75 77 72 33 72 -15 b 72 -69 94 -108 138 -132 b 157 -143 179 -151 202 -157 b 226 -163 250 -169 273 -176 l 297 -99 b 286 -96 268 -91 243 -85 b 218 -78 199 -70 187 -60 b 181 -55 176 -50 173 -43 b 170 -36 168 -21 168 1 b 168 24 171 54 178 91 b 185 129 188 166 188 202 b 188 239 173 267 142 288 b 173 309 188 319 188 374 b 188 399 185 437 178 487 b 171 537 168 575 168 600 b 168 615 174 628 187 638 b 192 643 199 647 207 650 l 233 659 b 243 662 253 665 264 668 z"},"9":{"x_min":0,"x_max":550,"ha":550,"o":"m 98 -23 l 120 -23 b 179 -23 231 -12 280 9 b 329 30 373 61 410 98 b 446 134 476 177 497 228 b 516 274 528 328 528 384 b 528 461 505 530 457 582 b 409 634 341 662 269 662 b 204 662 142 639 96 597 b 50 555 22 495 22 430 b 22 364 50 302 96 261 b 113 246 141 226 175 213 b 205 201 242 195 272 195 b 318 195 355 209 407 243 b 375 180 324 132 282 105 b 227 70 173 60 100 60 z m 266 578 b 284 578 304 575 321 570 b 335 565 354 556 367 546 b 375 540 395 523 409 502 b 424 480 433 453 433 423 b 433 387 420 352 395 326 b 359 289 309 279 272 279 b 223 279 183 296 156 321 b 124 351 110 390 110 429 b 110 474 129 510 158 536 b 167 544 183 557 209 567 b 228 574 246 578 266 578 z"}," ":{"x_min":0,"x_max":271,"ha":271,"o":""},"I":{"x_min":0,"x_max":210,"ha":210,"o":"m 150 0 l 150 684 l 54 684 l 54 0 z"},"H":{"x_min":0,"x_max":722,"ha":722,"o":"m 95 577 b 103 590 110 597 116 597 b 119 597 123 596 126 593 b 129 590 130 589 130 584 l 130 0 l 227 0 l 227 311 l 561 311 l 561 0 l 657 0 l 657 684 l 561 684 l 561 399 l 227 399 l 227 584 b 227 614 216 639 194 659 b 183 668 171 676 158 681 b 145 686 129 689 110 689 b 91 689 73 684 58 673 b 42 662 27 647 14 629 z"},"4":{"x_min":0,"x_max":534,"ha":534,"o":"m 139 207 l 339 660 l 234 660 l 25 187 l 25 120 l 343 120 l 343 -2 l 440 -2 l 440 120 l 524 120 l 524 207 l 440 207 l 440 418 l 343 418 l 343 207 z"},"~":{"x_min":0,"x_max":524,"ha":524,"o":"m 412 360 b 383 334 356 321 333 321 b 310 321 285 327 257 338 b 229 349 201 355 172 355 b 143 355 118 350 98 339 b 78 328 68 323 34 295 l 91 228 b 123 254 150 267 174 267 b 187 267 208 262 236 253 b 270 240 304 233 337 233 b 360 233 383 239 407 250 b 420 256 441 270 469 292 z"},"D":{"x_min":0,"x_max":819,"ha":819,"o":"m 135 690 b 107 690 78 690 46 650 b 26 625 14 596 14 557 l 105 557 b 104 567 108 581 110 586 b 115 599 123 603 133 603 l 139 603 l 139 4 b 170 -6 315 -9 362 -9 b 500 -9 598 17 667 85 b 733 150 769 245 769 344 b 769 437 737 524 676 589 b 614 655 529 689 434 690 z m 235 603 l 424 603 b 506 603 567 573 607 530 b 646 488 674 423 674 342 b 674 257 643 189 601 147 b 555 101 489 76 382 76 b 360 76 270 77 235 80 z"},"^":{"x_min":0,"x_max":449,"ha":449,"o":"m 426 359 l 236 633 l 198 633 l 8 359 l 84 306 l 215 493 l 348 304 z"},"0":{"x_min":0,"x_max":667,"ha":667,"o":"m 327 664 b 277 664 239 652 203 634 b 162 613 137 590 113 559 b 64 495 40 417 40 329 b 40 237 66 154 113 94 b 138 62 168 38 205 20 b 236 5 284 -12 340 -12 b 396 -12 481 5 546 93 b 593 156 617 241 617 329 b 617 418 592 496 543 559 b 518 591 488 616 452 634 b 419 651 379 664 327 664 z m 335 577 b 454 577 520 447 520 323 b 520 257 501 196 475 156 b 441 103 390 76 329 76 b 269 76 218 103 183 156 b 153 202 138 261 138 326 b 138 390 153 451 182 496 b 216 549 253 577 335 577 z"},"F":{"x_min":0,"x_max":601,"ha":601,"o":"m 613 596 l 613 683 l 134 683 b 98 683 69 670 47 643 b 25 617 14 586 14 550 l 105 550 b 104 559 106 568 109 578 b 112 588 119 594 130 596 l 130 0 l 226 0 l 226 316 l 493 316 l 493 403 l 226 403 l 226 596 z"},"`":{"x_min":0,"x_max":240,"ha":240,"o":"m 239 625 l 55 771 l -2 692 l 199 563 z"},"k":{"x_min":0,"x_max":591,"ha":591,"o":"m 134 727 l 44 727 l 44 1 l 134 1 l 134 192 l 276 192 l 367 49 b 377 34 390 22 407 14 b 423 5 440 1 458 1 b 474 1 489 4 502 11 b 540 29 562 64 566 116 l 474 120 b 474 115 473 108 470 101 b 467 93 464 89 456 89 b 452 89 447 90 446 93 l 364 217 b 387 230 406 246 419 263 b 432 280 442 302 447 329 b 450 340 451 350 451 362 b 451 407 436 448 399 479 b 367 506 324 519 275 519 b 216 519 171 500 134 462 z m 136 275 b 139 320 155 358 174 385 b 200 422 233 439 275 439 b 317 439 348 422 359 389 b 362 382 363 377 363 368 b 363 347 358 330 340 307 b 321 286 285 275 234 275 z"},"u":{"x_min":0,"x_max":674,"ha":674,"o":"m 45 445 l 62 433 b 92 411 107 393 107 380 l 107 145 b 107 117 112 93 122 74 b 149 20 208 -7 287 -7 b 355 -7 401 13 444 53 b 453 33 466 18 485 7 b 503 -5 523 -10 543 -10 b 582 -10 616 9 644 46 l 569 94 b 566 91 563 86 559 81 b 554 76 550 73 545 73 b 540 73 535 75 532 78 b 529 81 527 85 527 90 l 527 501 l 438 501 l 438 156 b 409 122 396 111 375 97 b 350 81 324 72 293 72 b 258 72 233 83 219 97 b 204 111 197 133 197 169 l 197 380 b 197 426 163 471 94 515 z"},"]":{"x_min":0,"x_max":331,"ha":331,"o":"m 274 -173 l 274 750 l 1 750 l 1 661 l 178 661 l 178 -84 l 1 -84 l 1 -173 z"},"U":{"x_min":0,"x_max":769,"ha":769,"o":"m 93 580 l 104 594 b 108 600 112 603 120 603 b 132 603 139 596 139 583 l 139 272 b 139 192 165 120 218 68 b 266 21 338 -8 424 -8 b 506 -8 577 18 629 68 b 681 118 709 187 709 272 l 709 685 l 613 685 l 613 272 b 613 216 598 167 563 130 b 528 93 480 77 423 77 b 360 77 315 97 284 130 b 255 161 235 210 235 272 l 235 583 b 235 611 225 639 200 662 b 175 685 147 693 121 693 b 82 693 47 676 14 631 z"},"o":{"x_min":0,"x_max":627,"ha":627,"o":"m 312 508 b 232 508 166 480 121 437 b 74 392 45 326 45 248 b 45 168 76 102 120 59 b 184 -4 262 -8 312 -8 b 379 -8 452 6 504 61 b 550 109 577 175 577 251 b 577 325 552 388 501 437 b 451 484 387 508 312 508 z m 311 427 b 368 427 411 408 438 380 b 472 345 483 295 486 267 b 487 260 487 253 487 247 b 487 180 453 135 440 121 b 416 95 367 72 308 72 b 256 72 215 89 184 121 b 153 153 137 196 137 249 b 137 302 153 347 184 379 b 215 411 259 427 311 427 z"},"N":{"x_min":0,"x_max":798,"ha":798,"o":"m 139 684 l 139 97 b 139 88 134 83 125 83 b 115 83 109 86 108 92 b 106 97 105 100 105 109 l 105 115 l 14 115 b 14 83 24 56 43 33 b 62 9 88 -3 121 -3 b 150 -3 175 7 198 26 b 222 46 234 70 234 98 l 234 522 l 689 0 l 733 0 l 733 683 l 638 683 l 638 191 b 587 252 533 314 480 375 b 427 436 382 488 345 529 l 261 622 b 241 643 221 663 202 684 z"},"+":{"x_min":0,"x_max":427,"ha":427,"o":"m 252 337 l 252 497 l 161 497 l 161 337 l 3 337 l 3 251 l 161 251 l 161 90 l 252 90 l 252 251 l 410 251 l 410 337 z"},"G":{"x_min":0,"x_max":766,"ha":766,"o":"m 612 -163 b 612 -174 605 -179 595 -179 b 587 -179 583 -176 579 -171 l 569 -158 l 493 -209 b 505 -226 519 -241 536 -253 b 553 -265 577 -270 596 -270 b 626 -270 652 -257 671 -239 b 692 -219 704 -194 704 -163 l 704 317 l 612 317 l 612 225 b 611 217 610 210 606 197 b 592 151 569 109 515 78 b 482 59 443 47 398 47 b 323 47 254 80 207 129 b 156 182 129 252 129 325 b 129 406 163 480 212 529 b 238 555 273 579 302 592 b 333 606 372 615 409 615 b 434 615 471 611 504 600 b 543 587 566 565 566 545 b 566 541 565 533 562 529 b 558 524 552 523 550 523 b 547 523 541 525 536 529 l 526 536 l 470 469 b 497 448 523 438 550 438 b 581 438 608 451 625 468 b 645 488 655 513 655 544 b 655 578 643 600 630 617 b 613 639 592 654 569 666 b 523 690 472 702 416 702 b 362 702 311 691 268 672 b 225 653 182 622 150 590 b 123 563 88 515 69 469 b 49 422 40 369 40 322 b 40 273 50 228 68 184 b 86 141 113 102 145 70 b 178 37 212 12 259 -9 b 305 -29 350 -38 399 -38 b 486 -38 557 -9 612 42 z"},"q":{"x_min":0,"x_max":548,"ha":548,"o":"m 408 -260 l 498 -260 l 498 485 b 446 500 365 508 314 508 b 227 508 160 485 112 431 b 73 387 45 320 45 239 b 45 170 65 104 103 57 b 145 6 204 -20 276 -20 b 328 -20 372 -6 408 23 z m 408 169 b 408 166 407 161 406 155 b 397 123 379 99 350 82 b 339 75 327 70 314 67 b 301 64 283 62 271 62 b 249 62 228 68 211 78 b 161 108 137 173 137 244 b 137 297 150 339 177 372 b 191 389 207 401 227 411 b 247 420 269 425 304 425 b 326 425 364 423 408 418 z"},"d":{"x_min":0,"x_max":644,"ha":644,"o":"m 499 727 l 409 727 l 409 512 b 371 516 329 518 306 518 b 219 518 156 490 112 441 b 71 395 45 329 45 251 b 45 183 65 116 104 68 b 142 21 200 -9 277 -9 b 336 -9 385 9 421 46 b 432 25 443 15 461 5 b 476 -3 493 -9 515 -9 b 555 -9 588 10 614 50 l 540 98 l 530 84 b 526 79 523 76 515 76 b 511 76 508 77 504 81 b 499 86 499 88 499 93 z m 409 196 b 409 161 396 130 369 106 b 354 93 340 87 326 82 b 306 75 292 73 276 73 b 248 73 228 79 211 89 b 167 115 137 174 137 252 b 137 307 152 353 177 382 b 188 395 208 412 228 421 b 246 429 267 435 311 435 b 337 435 373 433 409 428 z"},"1":{"x_min":0,"x_max":377,"ha":377,"o":"m 312 0 l 312 669 l 281 669 b 262 657 243 645 225 633 b 160 588 100 566 45 566 l 66 484 b 123 484 173 498 216 527 l 216 0 z"},"5":{"x_min":0,"x_max":500,"ha":500,"o":"m 420 654 b 358 651 235 648 51 646 l 51 335 b 88 349 153 364 204 364 b 261 364 303 355 329 342 b 368 323 388 289 388 235 b 388 183 370 144 342 118 b 314 92 270 76 224 76 b 204 76 190 79 176 84 b 143 96 95 124 54 157 l 30 72 b 40 63 56 51 70 42 b 124 7 179 -10 235 -10 b 304 -10 363 16 405 54 b 427 74 447 100 461 132 b 476 166 482 199 482 230 b 482 304 449 362 403 397 b 378 416 349 429 318 438 b 286 447 253 451 224 451 b 203 451 172 449 147 446 l 147 562 l 215 562 b 237 561 305 563 420 566 z"}}}
